<?xml version="1.0" encoding="UTF-8"?>
<svg xmlns="http://www.w3.org/2000/svg" version="1.1" viewBox="0 0 158 100.6">
  <defs>
    <style>
      .cls-1 {
        fill: #fff;
      }

      .cls-2 {
        fill: #febe10;
      }

      .cls-3 {
        fill: #004270;
      }
    </style>
  </defs>
  <!-- Generator: Adobe Illustrator 28.7.3, SVG Export Plug-In . SVG Version: 1.2.0 Build 164)  -->
  <g>
    <g id="Layer_1">
      <g>
        <rect class="cls-2" x=".16" y="78.23" width="157.91" height="22.37"/>
        <g>
          <path class="cls-3" d="M15.79,86.98h3.16c2.91,0,4.6,1.8,4.6,4.33v.02c0,2.53-1.71,4.41-4.64,4.41h-3.12v-8.77ZM18.05,89.12v4.47h.92c1.36,0,2.26-.8,2.26-2.22v-.03c0-1.4-.9-2.23-2.26-2.23h-.92Z"/>
          <path class="cls-3" d="M24.67,86.98h6.57v2.06h-4.33v1.34h3.92v1.92h-3.92v1.39h4.38v2.07h-6.63v-8.77Z"/>
          <path class="cls-3" d="M32.08,91.39v-.03c0-2.55,1.82-4.56,4.29-4.56,1.67,0,2.74.75,3.46,1.82l-1.71,1.42c-.46-.61-1-1.03-1.78-1.03-1.14,0-1.95,1.05-1.95,2.33v.02c0,1.32.8,2.34,1.95,2.34.85,0,1.35-.43,1.84-1.06l1.7,1.3c-.77,1.14-1.81,1.98-3.61,1.98-2.33,0-4.21-1.92-4.21-4.53Z"/>
          <path class="cls-3" d="M40.87,86.98h2.26v8.77h-2.26v-8.77Z"/>
          <path class="cls-3" d="M44.57,86.98h3.16c2.91,0,4.6,1.8,4.6,4.33v.02c0,2.53-1.71,4.41-4.64,4.41h-3.12v-8.77ZM46.83,89.12v4.47h.92c1.36,0,2.26-.8,2.26-2.22v-.03c0-1.4-.9-2.23-2.26-2.23h-.92Z"/>
          <path class="cls-3" d="M53.45,86.98h6.57v2.06h-4.33v1.34h3.92v1.92h-3.92v1.39h4.39v2.07h-6.63v-8.77Z"/>
          <path class="cls-3" d="M64.63,94.13l1.56-1.99c1.01.85,2.1,1.3,3.27,1.3.76,0,1.17-.28,1.17-.74v-.03c0-.47-.33-.7-1.71-1.05-2.14-.53-3.8-1.17-3.8-3.38v-.03c0-2.01,1.48-3.46,3.9-3.46,1.71,0,3.05.49,4.15,1.44l-1.4,2.12c-.92-.71-1.93-1.07-2.82-1.07-.68,0-1.01.29-1.01.7v.03c0,.49.34.71,1.76,1.05,2.3.54,3.74,1.34,3.74,3.37v.03c0,2.21-1.63,3.52-4.08,3.52-1.79,0-3.47-.6-4.72-1.79Z"/>
          <path class="cls-3" d="M74.71,85.1h8.11v2.53h-5.35v1.66h4.84v2.36h-4.84v1.72h5.42v2.55h-8.18v-10.82Z"/>
          <path class="cls-3" d="M84.25,85.1h4.77c1.54,0,2.61.43,3.29,1.16.59.63.89,1.45.89,2.52v.03c0,1.67-.82,2.77-2.07,3.34l2.4,3.77h-3.21l-2.03-3.28h-1.24v3.28h-2.79v-10.82ZM88.91,90.3c.94,0,1.5-.49,1.5-1.28v-.03c0-.87-.59-1.3-1.51-1.3h-1.85v2.61h1.86Z"/>
          <path class="cls-3" d="M98.4,83.37h4.79v1.65c.74-1.02,1.9-1.95,3.48-1.95s2.76.73,3.4,2.04c.97-1.18,2.13-2.04,3.9-2.04,2.47,0,3.99,1.72,3.99,4.51v8.16h-4.79v-6.55c0-1.04-.57-1.63-1.27-1.63s-1.33.59-1.33,1.63v6.55h-4.79v-6.55c0-1.04-.57-1.63-1.27-1.63s-1.33.59-1.33,1.63v6.55h-4.79v-12.37Z"/>
          <path class="cls-3" d="M118.77,92.23v-.04c0-2.47,1.71-3.85,4.39-3.85.97,0,2.22.23,2.72.45v-.2c0-1.13-.65-1.79-2.13-1.79-1.18,0-2.17.27-3.18.7l-.85-3.42c1.33-.54,2.85-.91,4.86-.91,2.34,0,3.86.52,4.88,1.61.86.93,1.21,2.13,1.21,3.92v7.05h-4.79v-1.25c-.81.93-1.88,1.54-3.32,1.54-2.22,0-3.78-1.36-3.78-3.81ZM125.84,78.23l4.08,1.13-3.48,3.06h-3.21l1.95-4.19h.66ZM125.93,91.17v-.52c-.27-.11-.7-.2-1.1-.2-.95,0-1.48.61-1.48,1.38v.05c0,.73.49,1.2,1.1,1.2.85,0,1.48-.72,1.48-1.9Z"/>
          <path class="cls-3" d="M131.08,94.25l1.63-2.92c1.39.93,2.96,1.38,4.26,1.38.47,0,.7-.11.7-.41v-.05c0-.25-.21-.41-1.37-.73-2.91-.77-4.71-1.61-4.71-4.17v-.04c0-2.72,2.03-4.24,5.03-4.24,1.9,0,3.78.52,5.17,1.43l-1.52,3.06c-1.22-.73-2.7-1.16-3.67-1.16-.47,0-.68.14-.68.38v.04c0,.25.25.41,1.41.73,2.92.77,4.67,1.63,4.67,4.17v.05c0,2.7-1.88,4.26-5,4.26-2.24,0-4.27-.61-5.91-1.79Z"/>
        </g>
      </g>
      <g>
        <rect class="cls-3" y="1.71" width="157.91" height="71.59"/>
        <g>
          <path class="cls-1" d="M15.68,40.02v-22.19h7.64v21.97c0,6.32,2.83,9.6,7.49,9.6s7.49-3.16,7.49-9.32v-22.25h7.64v21.92c0,11.76-5.9,17.53-15.23,17.53s-15.03-5.83-15.03-17.25Z"/>
          <path class="cls-1" d="M61.8,25.7h-12.14v-7.88h31.91v7.88h-12.14v30.96h-7.64v-30.96Z"/>
          <path class="cls-1" d="M85.31,17.82h14.18c8.28,0,13.29,5.49,13.29,13.43v.11c0,8.99-6.25,13.65-14.03,13.65h-5.8v11.65h-7.64V17.82ZM99,37.41c3.82,0,6.05-2.55,6.05-5.88v-.11c0-3.83-2.38-5.88-6.2-5.88h-5.9v11.87h6.05Z"/>
          <path class="cls-1" d="M116.09,17.82h7.64v31.07h18.42v7.77h-26.06V17.82Z"/>
        </g>
      </g>
    </g>
  </g>
</svg>